<?xml version="1.0" encoding="utf-8" ?>
<svg xmlns="http://www.w3.org/2000/svg" xmlns:xlink="http://www.w3.org/1999/xlink" width="2000" height="2000">
	<path fill="#797978" d="M651.324 989.987L651.295 854.757C651.273 830.372 649.735 805.067 651.537 780.77C651.992 774.638 653.15 768.711 655.161 762.895Q655.606 761.603 656.083 760.323Q656.56 759.043 657.068 757.775Q657.576 756.507 658.115 755.252Q658.655 753.997 659.225 752.755Q659.795 751.514 660.396 750.287Q660.996 749.06 661.627 747.848Q662.258 746.636 662.918 745.44Q663.578 744.244 664.268 743.065Q664.958 741.886 665.677 740.724Q666.395 739.562 667.142 738.419Q667.889 737.275 668.664 736.15Q669.439 735.025 670.242 733.919Q671.045 732.814 671.874 731.729Q672.704 730.643 673.56 729.579Q674.416 728.514 675.298 727.471Q676.18 726.428 677.088 725.407Q677.995 724.386 678.928 723.388Q679.861 722.389 680.818 721.414Q681.774 720.439 682.755 719.488Q683.736 718.537 684.74 717.611Q685.743 716.684 686.77 715.782Q687.796 714.881 688.844 714.005Q689.893 713.129 690.962 712.279Q692.032 711.429 693.122 710.606Q694.212 709.783 695.323 708.987Q696.433 708.191 697.562 707.423Q698.692 706.654 699.84 705.914Q700.988 705.174 702.154 704.462Q703.32 703.75 704.504 703.068Q705.687 702.385 706.887 701.732Q708.086 701.078 709.302 700.455Q710.517 699.831 711.748 699.238C722.674 693.972 733.183 693.368 745.081 692.841C787.693 690.954 830.995 692.363 873.65 692.957C912.098 693.492 950.592 693.216 989.044 693.249C1036.61 693.289 1084.21 693.627 1131.77 693.1C1169.49 692.682 1207.48 691.2 1245.19 692.381C1255.99 692.72 1270.44 692.638 1280.57 696.516Q1283.33 697.589 1286.02 698.806Q1288.72 700.024 1291.34 701.384Q1293.97 702.743 1296.52 704.241Q1299.07 705.738 1301.54 707.369Q1304.01 709 1306.38 710.761Q1308.76 712.521 1311.04 714.405Q1313.32 716.289 1315.5 718.292Q1317.67 720.295 1319.74 722.411C1333.22 736.006 1342.63 755.367 1346.34 774.07C1350.06 792.835 1347.81 824.198 1347.81 844.289L1347.76 988.367C1348.56 996.807 1349.07 1005.27 1347.79 1013.69L1347.82 1148.43C1347.85 1170.6 1350.61 1206.22 1345.96 1227.17C1342.04 1244.83 1331.73 1263.86 1319.25 1276.94C1307.64 1289.09 1289.04 1301.06 1272.48 1304.68C1262.85 1306.79 1251.53 1306.75 1241.67 1306.91C1201.41 1307.57 1161.04 1306.7 1120.78 1306.6L900.886 1306.56L792.862 1306.74C771.139 1306.77 746.981 1308.64 725.604 1304.79C709.337 1301.87 693.029 1289.87 681.497 1278.55Q680.189 1277.25 678.928 1275.9Q677.667 1274.55 676.455 1273.16Q675.243 1271.76 674.081 1270.33Q672.919 1268.89 671.808 1267.42Q670.698 1265.94 669.64 1264.43Q668.583 1262.92 667.579 1261.37Q666.576 1259.82 665.629 1258.23Q664.681 1256.65 663.79 1255.03Q662.899 1253.41 662.067 1251.76Q661.234 1250.11 660.46 1248.44Q659.686 1246.76 658.972 1245.06Q658.258 1243.36 657.605 1241.63Q656.952 1239.9 656.36 1238.15Q655.769 1236.4 655.24 1234.63Q654.711 1232.87 654.244 1231.08Q653.778 1229.29 653.376 1227.49C648.709 1206.68 651.371 1176.57 651.34 1154.51C651.27 1105.58 651.702 1056.61 651.039 1007.69C649.46 1002.33 650.599 995.462 651.324 989.987Z"/>
	<path fill="#6ADFE2" d="M852.124 857.825C859.593 857.306 867.094 857.357 874.578 857.31C893.437 857.192 915.583 855.527 929.92 870.318C948.793 889.787 943.699 926.731 943.707 951.87C928.259 952.299 912.804 951.67 897.363 951.212C897.263 940.194 899.26 923.214 894.963 913.046C893.321 909.16 890.359 907.235 886.518 905.826C878.474 902.876 867.627 902.569 859.821 906.44C856.415 908.129 853.487 910.836 852.39 914.567C848.945 926.288 849.842 1058.14 851.027 1077.08C851.215 1080.08 851.542 1084.05 853.33 1086.6C856.126 1090.6 863.301 1091.97 867.747 1092.48C874.587 1093.28 887.69 1093.25 893.023 1087.94C898.457 1082.54 897.146 1055.89 897.717 1046.75Q920.319 1046.44 942.916 1046.98C945.072 1067.78 946.504 1107.51 932.828 1124.27C924.61 1134.34 912.443 1138.1 900.002 1139.54C876.815 1142.22 835.879 1143.82 817.223 1128.4C807.506 1120.37 804.248 1107.12 803.114 1095.11C799.883 1060.88 801.589 1025.35 801.633 990.958C801.67 961.927 799.534 920.097 804.473 892.618C805.842 885 808.47 878.433 813.611 872.54C823.763 860.901 837.63 858.868 852.124 857.825Z"/>
	<path fill="#6ADFE2" d="M1206.61 762.649Q1209.75 762.631 1212.89 762.818C1223.48 763.46 1234.38 764.43 1244.54 767.66C1272.22 776.46 1291.58 800.861 1296.55 829.123C1300.24 850.141 1298.21 890.195 1298.12 912.792C1298.07 922.587 1296.51 936.161 1301 945.031C1307.38 957.654 1335.88 975.092 1347.76 988.367C1348.56 996.807 1349.07 1005.27 1347.79 1013.69C1331.52 1029.8 1312.9 1044.61 1298.92 1062.78C1296.78 1094.91 1299.07 1127.31 1297.78 1159.49C1296.93 1180.76 1288.87 1200.86 1272.94 1215.43C1253.95 1232.81 1231.54 1237.39 1206.6 1236.43C1205.25 1219.62 1206.03 1202.29 1206.3 1185.45C1216.54 1184.7 1227.35 1184.4 1235.7 1177.54C1240.71 1173.43 1243.71 1166.9 1244.99 1160.65C1246.98 1150.88 1246.13 1140.17 1246.07 1130.23C1245.92 1107.58 1244.6 1084.13 1246.33 1061.56C1248.26 1036.15 1263.16 1018.3 1281.89 1002.31C1269.03 991.269 1256.08 977.437 1249.83 961.398C1239.69 935.341 1252.56 845.015 1241.73 830.276C1233.23 818.706 1219.71 816.434 1206.49 814.228C1205.74 797.136 1205.76 779.736 1206.61 762.649Z"/>
	<path fill="#FE72B9" d="M700.968 943.437L701.14 941.899C704.735 908.369 696.585 845.896 705.911 817.667C710.524 803.704 720.323 790.474 731.65 781.197C749.364 766.688 773.309 761.17 795.779 761.931C796.21 779.652 796.529 797.459 795.612 815.171C783.675 816.231 770.284 817.395 761.907 827.117C758.629 830.921 757.024 835.359 756.239 840.265C754.952 848.309 755.502 857.072 755.441 865.242C755.247 890.817 758.037 939.16 750.326 961.855C744.907 977.805 733.357 991.836 719.507 1001.19C744.717 1026.17 754.919 1039.41 755.08 1075.98C755.165 1095.42 752.628 1144.67 756.024 1160.55C757.165 1165.89 759.518 1171.37 763.553 1175.17C771.987 1183.09 785.336 1183.75 796.22 1185.38C796.159 1202.12 796.892 1219.69 794.803 1236.31C771.601 1238.42 748.543 1232.07 730.388 1216.89C713.746 1202.98 704.07 1180.27 702.392 1158.99C699.817 1126.36 704.149 1093.15 700.938 1060.53C692.275 1045.72 664.119 1024.21 651.039 1007.69C649.46 1002.33 650.599 995.462 651.324 989.987C665.366 974.998 691.27 959.454 700.968 943.437Z"/>
	<path fill="#FE72B9" d="M1151.37 857.327C1166.62 857.112 1182.36 856.642 1197.52 858.486C1197.45 871.32 1195.44 884.242 1194.05 896.999L1187.87 954.704C1185.34 967.359 1185.13 981.297 1183.59 994.181C1177.82 1042.49 1174.47 1092.22 1165.53 1140C1150.47 1141.14 1135.04 1140.63 1119.95 1140.25C1112.95 1119.27 1108.94 1096.92 1104.09 1075.35C1096.61 1042.13 1088.94 1008.75 1080.65 975.731C1076.09 1001.02 1069.1 1025.49 1063.56 1050.53C1057.07 1079.82 1052.76 1112.34 1041.07 1140.04C1026.06 1141.07 1010.28 1141.21 995.308 1139.86C994.159 1135.44 993.356 1130.91 992.579 1126.41C988.535 1103 987.587 1079.24 984.923 1055.66C982.572 1034.85 962.013 866.266 963.683 859.825C963.877 859.074 964.578 858.559 965.026 857.926C979.971 856.668 996.309 856.89 1011.2 858.573C1016.44 898.624 1020.08 939.357 1023.37 979.615C1024.72 996.153 1024.19 1012.74 1026.77 1029.18C1035.38 991.894 1042.92 954.231 1050.92 916.797C1055.08 897.334 1057.02 875.702 1065.6 857.642C1076.31 857.282 1086.81 857.6 1097.45 858.974C1104.4 877.008 1107.63 897.18 1111.39 916.065L1123.48 974.671C1127.11 992.964 1130.01 1011.51 1135.01 1029.49C1136.07 1010.81 1138.39 992.173 1139.68 973.494C1142.33 935.151 1144.14 895.147 1151.37 857.327Z"/>
</svg>
